<?xml version="1.0" encoding="UTF-8"?>
<svg width="1859.9340000000002" height="2000" xmlns="http://www.w3.org/2000/svg" xmlns:svg="http://www.w3.org/2000/svg">
 <title>Oktoberfest Beer Mug - full outline</title>
 <g>
  <title>Layer 1</title>
  <g id="Layer_1">
   <g id="svg_99"/>
   <g id="svg_120">
    <path fill="#EFF3FA" d="m1297.669474,1524.988581c-7.44666,0 -15.1554,-0.18054 -22.86756,-0.54541l-12.96643,-0.61743l-1.79626,-147.04077l15.81262,2.19543c0.01099,0 4.74548,0.61414 12.46802,0.61414c40.21863,0 135.34399,-15.56958 151.08996,-159.53797c3.05518,-135.90112 -1.96557,-352.34051 -28.3269,-393.32648l-1.07471,-1.67144l-0.57287,-1.91364c-0.13074,-0.45849 -15.51612,-49.20367 -50.5011,-49.20367c-22.85315,0 -51.70032,19.88788 -83.42163,57.50451l-3.03736,3.60383l-43.37243,9.34106l-15.4596,-214.51892l10.00708,-3.53485c2.12464,-0.74719 52.61914,-18.32794 114.53784,-18.32794c76.98987,0 208.44031,29.65521 223.70533,228.26123c1.13513,12.90087 28.21032,320.49725 19.14367,425.80853c-0.03894,10.44958 -2.33008,111.51086 -74.60595,185.95373c-49.58167,51.05945 -119.82459,76.95606 -208.76172,76.95606z" id="svg_121"/>
    <path fill="#000000" d="m1338.184734,622.065851c87.06714,0 196.23413,36.56604 209.96448,215.29828c0,0 28.33728,319.44684 19.10827,424.08612c0,0 2.11463,249.47449 -269.58801,249.47449c-7.21716,0 -14.625,-0.17688 -22.22766,-0.53419l-1.43531,-117.47619c0,0 5.3888,0.74756 14.31336,0.74756c39.42676,0 147.85803,-14.58386 164.84839,-172.66638c0,0 7.7832,-342.35712 -30.56824,-401.98493c0,0 -17.82507,-59.1261 -63.66968,-59.13306c-23.48254,0 -54.30224,15.5008 -93.85595,62.38978l-23.39393,5.03704l-13.53247,-187.67572c0.01062,-0.0036 49.73401,-17.55572 110.03675,-17.5628m0.01782,-28.13141l0,28.13141l-0.01087,-28.13141c-64.2063,0.00708 -116.82568,18.32092 -119.04651,19.11163l-20.02429,7.06647l1.55945,21.58118l13.53247,187.67572l2.30884,32.10016l30.84473,-6.64423l23.39746,-5.03345l9.10144,-1.96039l6.07165,-7.20715c38.62366,-45.7915 62.30432,-52.61951 72.98657,-52.61951c24.36658,0 37.26612,39.02497 37.38953,39.41858l1.15991,3.82001l2.10755,3.20673c4.61816,7.18536 20.09521,43.48413 25.15527,208.78796c2.60571,85.27545 1.13818,165.15582 0.91186,175.88702c-14.16149,127.35511 -92.05578,146.40894 -137.32775,146.40894c-6.65442,0 -10.71351,-0.5022 -10.76661,-0.51257l-31.6438,-4.38758l0.54773,32.63416l1.43225,117.47571l0.32544,26.51391l25.93665,1.23145c7.93115,0.37915 15.83765,0.57056 23.50342,0.57056c92.74609,0 166.27368,-27.29371 218.54992,-81.13721c74.62391,-76.86206 78.43567,-180.71485 78.58728,-195.17236c8.98523,-106.67945 -17.84228,-412.37995 -19.20752,-427.75129c-16.15576,-209.74841 -155.65417,-241.06445 -237.38208,-241.06445l0,0l0.00001,0z" id="svg_122"/>
    <path fill="#EFF3FA" d="m765.430154,1750.945731c-104.61249,0 -358.49069,-12.8324 -456.39169,-131.71313c-2.08654,-2.54566 -3.23549,-5.76258 -3.22524,-9.08814l1.93077,-917.46698c0.01425,-7.01568 5.0886,-12.95141 11.89856,-13.90527l909.30414,-127.34381c0.61914,-0.08695 1.24512,-0.13352 1.86365,-0.13352c3.19653,0 6.32263,1.13706 8.8153,3.25327c2.974,2.52765 4.77344,6.22137 4.94385,10.16098l45.95349,1018.82425c0.1377,3.28576 -0.84863,6.53503 -2.79004,9.1571c-33.38317,44.88513 -147.29187,150.10205 -483.2052,157.52222l0,0c0.10614,0.0144 -14.66369,0.73303 -39.09759,0.73303z" id="svg_123"/>
    <path fill="#000000" d="m1230.810704,565.373371l45.94666,1018.82456c-30.42346,40.92419 -140.05396,144.625 -472.52997,151.96887c-0.72479,0.03625 -15.15888,0.71143 -38.80066,0.71143c-97.38519,0 -350.98373,-11.50769 -445.84018,-126.7013l1.9307,-917.46344l909.29345,-127.34018m0,-28.12756c-1.24853,0 -2.4967,0.08639 -3.74121,0.26004l-909.29712,127.33997c-13.62405,1.91021 -23.77957,13.7716 -23.80772,27.81402l-1.92726,917.46295c-0.01424,6.6438 2.28087,13.08203 6.46385,18.16236c45.07707,54.73901 125.09306,93.78931 237.82805,116.06775c90.98825,17.97778 182.59537,20.66028 229.10135,20.66028c22.45685,0 36.99322,-0.60633 39.71258,-0.72535c341.67322,-7.61157 458.96253,-116.56652 493.5481,-163.06884c3.90381,-5.24634 5.87341,-11.72803 5.57654,-18.30323l-45.94007,-1018.83175c-0.35717,-7.89631 -3.9425,-15.26944 -9.88659,-20.32102c-4.97522,-4.24286 -11.23389,-6.51721 -17.6305,-6.51721l0,0l0,0.00003z" id="svg_124"/>
    <path fill="#EFF3FA" d="m791.709694,1953.122861c-103.00714,0 -358.28519,-10.35218 -503.65408,-106.26478c-1.05361,-0.68213 -2.00119,-1.5238 -2.82855,-2.47668c-4.08075,-4.69763 -38.42255,-50.52173 9.85832,-211.66968c1.72902,-5.77356 6.87387,-9.78516 12.79333,-9.94763c0,0 4.15805,-0.11182 4.28182,-0.11182c3.70564,0 7.26321,1.52356 9.85824,4.23548c17.13578,17.93811 39.01303,34.15759 65.02024,48.21399c119.16305,64.41638 300.62362,71.37768 373.10495,71.37768c25.8128,0 42.39654,-0.83435 44.20684,-0.92834c307.58283,-6.79859 427.05732,-93.2002 470.94611,-144.094c2.62744,-3.05823 6.41077,-4.77722 10.3396,-4.77722c0.59387,0 1.20227,0.04346 1.80286,0.1156c4.54748,0.61414 8.50061,3.50623 10.53772,7.71655c7.18164,14.81495 68.49572,146.78418 10.83068,215.91211c-0.30432,0.3678 -0.62927,0.71814 -0.97595,1.05762c-5.0105,4.88916 -126.88598,119.8595 -480.23498,131.13208c-0.43854,0.01428 -13.47931,0.52356 -35.86939,0.52356c-0.00689,-0.01453 -0.01422,-0.01453 -0.01776,-0.01453l0,0.00001z" id="svg_125"/>
    <path fill="#000000" d="m1285.632854,1610.736991c6.02197,12.42456 64.8258,138.03906 12.69079,200.55945c0,0 -119.02209,116.01709 -471.1615,127.24621c0,0 -13.06237,0.52027 -35.45196,0.52027c-94.03644,0 -352.35925,-9.13172 -496.17896,-104.01538c0,0 -34.68849,-39.95655 12.72255,-198.21961l3.90726,-0.10778c19.0551,19.93469 42.36812,36.72082 68.42848,50.80981c119.77515,64.74817 296.99268,73.00635 379.55823,73.00635c25.42371,0 41.88031,-0.78015 44.91058,-0.93872c314.35065,-6.95093 436.50544,-97.74695 480.57453,-148.8606m-0.01428,-28.12805c-7.85694,0 -15.39551,3.43408 -20.67115,9.54285c-19.37366,22.47753 -57.3468,55.18017 -128.24744,83.37268c-85.90722,34.15429 -197.69067,52.98047 -332.24987,55.9486c-0.2685,0.00721 -0.53742,0.01465 -0.80982,0.02881c-1.7749,0.0979 -18.03003,0.91016 -43.50335,0.91016c-71.45557,0 -250.22861,-6.79919 -366.66547,-69.73853c-24.73441,-13.37756 -45.4661,-28.71618 -61.60815,-45.6073c-5.18705,-5.42651 -12.30182,-8.48156 -19.70966,-8.48156c-0.24736,0 -0.50198,0.00342 -0.75664,0.01123l-3.90372,0.10437c-11.82797,0.33215 -22.12812,8.34094 -25.58299,19.89172c-48.1888,160.85156 -17.53842,212.96948 -6.99425,225.11218c1.65485,1.91358 3.56444,3.58912 5.66475,4.97913c148.44828,97.93481 406.89499,108.5105 511.12552,108.5105c22.66248,0 35.96472,-0.52002 36.5163,-0.53772c358.34588,-11.42835 483.93719,-129.97315 489.11066,-135.01013c0.67871,-0.66773 1.33654,-1.36817 1.94824,-2.1045c62.078,-74.4143 3.42651,-205.71191 -8.96387,-231.276c-4.07349,-8.40588 -11.97644,-14.17956 -21.08508,-15.41089c-1.19873,-0.17334 -2.40845,-0.2456 -3.61402,-0.2456l0,0l0.00001,0z" id="svg_126"/>
    <path fill="#FFCD49" d="m1200.121374,1480.699031c0.72132,51.55066 -37.20215,107.75586 -84.29126,124.92138c-188.76208,68.79212 -386.66858,76.11109 -580.83069,28.86048c-23.12213,-5.62183 -46.35348,-11.32678 -68.97702,-18.84448c-47.55209,-15.78601 -87.07009,-70.89344 -87.8056,-122.45484l-6.54901,-459.3963c-0.72461,-51.55774 -1.93756,-135.93768 -2.6662,-187.50964l-6.54843,-459.39252c-0.73199,-51.56526 39.53232,-94.37779 89.47839,-95.13237l229.32044,-3.48466c49.94611,-0.76154 131.68793,-2.00013 181.63007,-2.75829l229.31353,-3.48116c49.96045,-0.75808 68.71875,40.81226 69.45069,92.37391l24.71679,459.3923c0.72132,51.56525 6.47046,135.94525 7.20606,187.51001l6.55224,459.39618z" id="svg_127"/>
    <path fill="#F89939" d="m1128.284344,1310.087581c3.16137,51.3844 2.99121,96.96325 -34.28858,106.46289c-39.49365,10.06335 -43.6344,-39.68213 -44.71985,-91.37012c-2.88202,-136.57654 -1.72216,-273.57953 -1.9411,-410.27887c-0.07428,-45.6145 -0.19134,-120.24133 -0.2655,-165.85284l-0.62921,-406.3396c-0.07086,-45.60028 3.82947,-83.46605 8.66308,-84.14138l22.21344,-3.08357c4.84406,-0.66064 12.75422,-1.75816 17.60529,-2.43693l22.20972,-3.07296c4.83728,-0.67532 6.65161,36.10036 6.72595,81.70032l2.38989,406.33627c0.07422,45.6142 0.63306,120.23768 0.69666,165.85224c0.12732,83.11273 -0.0636,166.23236 0.25134,249.34442c0.19055,51.93347 -2.18567,104.45532 1.02539,156.07837c0.02063,0.25647 0.03833,0.5271 0.06348,0.80176z" id="svg_128"/>
    <path fill="#FFFFFF" d="m1118.570844,660.097891c0,0 142.91772,130.96552 197.88879,-112.25836c0,0 87.94763,-37.42578 29.31006,-119.75418c0,0 29.31299,-97.2845 -54.96729,-86.0586c0,0 10.99341,-127.22483 -109.93811,-104.77665c0,0 -40.30664,-74.84725 -117.2608,-14.97023c0,0 16.03247,-73.68505 -18.31982,-113.6161c0,0 -135.5951,-140.84143 -282.16974,8.84268c0,0 -76.95728,-59.87723 -139.25122,22.45521c0,0 -62.29352,-44.90691 -120.93119,29.93683c0,0 -62.29388,-104.78769 -131.92499,0c0,0 -164.90489,-22.4553 -142.91793,145.93919c0,0 -128.25435,71.08855 -62.2901,164.64681c0,0 -80.06206,59.49814 -21.98697,123.48791c0,0 -48.89236,71.97657 43.97735,130.96912c0,0 14.65676,78.58063 73.29047,56.12885c0,0 -18.31633,119.74365 58.63058,138.46167c0,0 14.65683,254.44958 168.57181,231.99841c0,0 117.26084,3.73694 139.25119,-160.90601c0,0 135.59192,-82.32525 69.62763,-194.59076c0,0 128.16583,42.62445 172.14312,-80.86291c0,0 88.85273,57.97778 125.48572,-9.37702c-0.01031,-0.0036 112.78083,67.78473 123.78144,-55.69586z" id="svg_129"/>
    <path fill="#000000" d="m469.495064,1176.995171c-132.33865,0 -158.367,-190.10614 -162.76239,-236.74213c-58.81409,-21.49194 -62.86629,-95.15795 -61.11952,-131.2655c-1.52413,0.11542 -3.0374,0.17627 -4.5262,0.17627c-44.19998,0 -60.83322,-47.99005 -65.41602,-65.4447c-31.74284,-21.36835 -50.78425,-46.82788 -56.63605,-75.72461c-5.47015,-27.02997 2.29463,-49.9837 8.11146,-62.33209c-13.83281,-18.15518 -19.84427,-37.68912 -17.88853,-58.18378c3.04093,-31.85415 25.06322,-57.155 38.35824,-69.73093c-13.52505,-23.58178 -17.60189,-47.87506 -12.12138,-72.38476c11.08539,-49.47821 58.55991,-84.49509 77.88059,-96.94847c-4.44804,-46.56082 4.78777,-83.53488 27.49938,-110.03067c32.49612,-37.89125 83.78924,-43.55288 111.47949,-43.55288c4.66083,0 8.71649,0.15516 11.95172,0.35743c22.008,-30.48199 46.14493,-45.93225 71.83404,-45.93225c30.75266,0 54.7338,22.55982 67.75699,38.35685c27.74311,-28.61153 55.57529,-35.08543 75.05488,-35.08543c17.56695,0 32.18835,5.10541 41.56573,9.54301c22.88178,-25.99775 50.53644,-39.6605 80.57495,-39.6605c26.11328,0 48.10358,10.1786 60.24658,17.26292c45.22522,-43.23152 94.01532,-65.13449 145.17761,-65.13449c85.71619,0 146.05103,61.63577 148.58301,64.26101c0.18006,0.18768 0.34998,0.38256 0.51972,0.58095c23.80774,27.66584 26.63653,67.97617 25.16894,95.52264c13.48322,-6.5859 26.76447,-9.90432 39.70587,-9.90432c34.9889,0 57.24463,23.77695 66.90113,36.96297c38.9281,-5.24602 69.06518,3.92891 89.65539,26.89639c21.90186,24.42371 26.7959,58.35741 27.62671,78.20198c26.37146,0.31778 40.44495,12.12508 47.62647,22.05817c17.74035,24.53116 11.98352,60.88123 8.40881,76.2807c17.36182,26.56043 22.86353,52.00943 16.34717,75.73193c-8.6106,31.33442 -35.96497,49.4675 -48.71607,56.4144c-29.9602,125.27143 -85.23852,151.82495 -126.69824,151.82495c-29.50085,0 -56.08484,-13.29443 -73.07153,-24.32934c-12.80725,54.52258 -49.45105,63.38678 -71.87634,63.38678c-0.0036,0 -0.0036,0 -0.0036,0c-22.42884,0 -44.31305,-8.36963 -57.21967,-14.42145c-14.23932,18.6532 -34.47949,28.42773 -59.23846,28.42773c-24.88996,0 -49.30976,-9.94012 -64.11493,-17.39654c-24.34528,53.14667 -69.7298,82.17316 -129.32233,82.17316c-9.25336,0 -17.82098,-0.71149 -25.28229,-1.6969c8.51496,23.961 9.79816,48.24725 3.80823,72.51489c-14.4975,58.69287 -67.42456,98.93823 -85.09369,110.98029c-24.39148,160.82605 -136.81845,166.52404 -151.06522,166.59631c-6.66882,0.91736 -13.27716,1.39001 -19.67065,1.39001zm-208.42963,-399.99213c3.1187,0 6.20578,1.07972 8.69506,3.15937c3.80491,3.15948 5.67172,8.13165 4.91162,13.07489c-0.1559,1.05426 -15.39234,107.13421 48.2169,122.61029c5.90521,1.43329 10.20142,6.65491 10.55838,12.84332c0.12384,2.20636 14.29981,220.17633 136.04065,220.17633c5.4314,0 11.09622,-0.41833 16.8349,-1.26013c0.77774,-0.11194 1.59485,-0.16272 2.37613,-0.13354c10.97586,0 105.87164,-4.17408 125.16772,-148.74891c0.56922,-4.24206 3.00556,-7.99737 6.60834,-10.18939c0.62592,-0.37896 63.94892,-39.61346 78.1637,-97.50073c6.33258,-25.78461 1.85614,-51.94781 -13.30615,-77.75738c-2.95984,-5.03028 -2.54578,-11.41053 1.03979,-15.99988c3.57837,-4.58917 9.57904,-6.41986 15.03485,-4.60694c0.16626,0.0575 19.86554,6.4162 45.39539,6.4162c54.08282,0 90.93554,-26.48498 109.53448,-78.71795c1.42871,-4.00794 4.56507,-7.14924 8.52924,-8.51777c3.95306,-1.372 8.31293,-0.8305 11.8313,1.46961c0.30041,0.19867 32.72223,20.98913 63.53821,20.98913c19.32428,0 33.22088,-8.28637 42.49566,-25.33654c1.80725,-3.31464 4.84076,-5.75208 8.41968,-6.74506c3.57477,-1.00018 7.40424,-0.47998 10.60791,1.45184c0.26141,0.15161 28.18182,16.62049 54.94226,16.62049c0.03894,0 0.07758,0 0.11652,0c10.68225,0 42.57354,-0.22046 48.0296,-61.46277c0.47412,-5.30005 3.83667,-9.86463 8.68115,-11.81403c4.84778,-1.95361 10.36353,-0.93524 14.23584,2.6178c0.33252,0.30304 35.22217,31.61951 73.89185,31.61951c58.28027,0 87.29687,-74.27002 101.37683,-136.56952c1.0011,-4.42002 4.02075,-8.07398 8.12622,-9.82163c0.27576,-0.12298 32.02173,-14.16137 39.43652,-41.46588c4.50159,-16.63098 -0.86596,-35.82196 -15.96826,-57.02093c-2.55322,-3.58173 -3.30639,-8.18198 -2.0227,-12.40677c3.20703,-10.78513 9.03088,-42.31436 -2.47156,-58.16159c-6.57691,-9.056 -19.13684,-12.27671 -37.54895,-9.82477c-4.15833,0.56677 -8.30933,-0.84174 -11.31885,-3.79846c-3.01245,-2.95047 -4.5542,-7.13858 -4.18652,-11.38144c0.03881,-0.43329 3.51818,-46.46637 -20.40613,-73.02387c-11.57324,-12.86162 -27.5813,-19.10808 -48.91358,-19.10808c-7.52465,0 -15.74597,0.81937 -24.42663,2.42989c-5.83447,1.07636 -11.6792,-1.75813 -14.52954,-7.05887c-0.6648,-1.20231 -17.38282,-30.90071 -48.29114,-30.90071c-14.8761,0 -31.2157,6.84592 -48.5564,20.33968c-4.60052,3.57805 -10.90521,3.83806 -15.77386,0.66366c-4.87293,-3.18809 -7.27368,-9.1313 -6.01856,-14.90141c0.12738,-0.64966 13.93897,-66.82407 -14.93603,-100.93836c-3.97797,-3.97886 -57.25507,-55.62723 -128.69977,-55.62723c-46.60821,0 -91.57568,21.79086 -133.67877,64.7731c-4.87976,4.97933 -12.59863,5.50995 -18.08313,1.24606c-0.2016,-0.15924 -24.00568,-18.14815 -53.66248,-18.14815c-24.932,0 -47.2547,12.79286 -66.33886,38.00727c-4.51203,5.96086 -12.82148,7.23906 -18.84333,2.8957c-0.08465,-0.06159 -15.60766,-10.78539 -36.95831,-10.78539c-23.54608,0 -45.51175,12.79623 -65.27103,38.01774c-2.81094,3.5852 -7.16403,5.5532 -11.64743,5.24947c-4.49084,-0.29567 -8.54647,-2.80501 -10.88726,-6.73755c-0.21586,-0.37201 -24.25358,-39.79749 -54.99579,-39.79749c-17.85657,0 -35.93979,13.59098 -53.74698,40.3969c-2.93823,4.40867 -8.05155,6.74511 -13.22125,6.04473c-0.04233,-0.0034 -6.69339,-0.8701 -16.82804,-0.8701c-23.01886,0 -65.42634,4.41564 -90.74772,33.95185c-18.74097,21.85931 -25.42412,54.51164 -19.86881,97.06054c0.75664,5.78116 -2.06502,11.4352 -7.08233,14.21902c-0.59449,0.33587 -61.46318,34.75705 -72.3185,83.51682c-4.53307,20.35416 0.25471,40.15512 14.63177,60.55234c4.43076,6.27875 3.05517,15.03506 -3.06547,19.59167c-0.32547,0.23487 -34.21103,26.0087 -37.24117,58.45832c-1.42522,15.31344 4.21454,29.72732 17.24839,44.09475c4.39888,4.84558 4.90088,12.15003 1.21635,17.57324c-0.10615,0.16254 -14.84067,22.82721 -9.03426,50.67334c4.65704,22.35437 21.14179,42.65394 48.97016,60.3357c3.26358,2.07629 5.53017,5.45227 6.25488,9.30841c0.08508,0.45483 9.67096,48.73102 39.76964,48.73102c4.61084,0 9.70982,-1.05072 15.14458,-3.13074c1.55607,-0.61737 3.20022,-0.91003 4.82309,-0.91003l-0.00001,-0.00001z" id="svg_130"/>
    <path fill="#F89939" d="m659.625834,1489.216851c20.55823,0 20.55823,-32.56152 0,-32.56152c-20.56885,0.00354 -20.56885,32.56152 0,32.56152l0,0z" id="svg_131"/>
    <path fill="#F89939" d="m751.448894,1254.806451c20.56158,0 20.56158,-32.5614 0,-32.5614s-20.56165,32.5614 0,32.5614l0,0z" id="svg_132"/>
    <path fill="#F89939" d="m870.817364,954.763851c20.55816,0 20.55816,-32.56153 0,-32.56153c-20.56549,0 -20.56549,32.56153 0,32.56153l0,0z" id="svg_133"/>
    <path fill="#F89939" d="m531.071144,1282.938161c20.55814,0 20.55814,-32.56567 0,-32.56567c-20.56552,0.00427 -20.56552,32.56567 0,32.56567l0,0z" id="svg_134"/>
    <path fill="#F89939" d="m962.640544,1484.526791c20.56152,0 20.56152,-32.56153 0,-32.56153s-20.56226,32.56153 0,32.56153l0,0z" id="svg_135"/>
    <path fill="#F89939" d="m897.408114,1112.868221c1.96277,-6.36914 2.39051,-13.05274 -1.39654,-18.9856c-3.62469,-5.66858 -9.22565,-9.38049 -16.01099,-9.38049c-6.78924,0 -12.39367,3.70831 -16.01477,9.38049c-3.78326,5.93286 -3.34869,12.60559 -1.3825,18.9856c2.41845,7.86059 9.14782,13.52636 17.39727,13.52636s14.97461,-5.66577 17.40754,-13.52636l0,0l-0.00001,0z" id="svg_136"/>
    <path fill="#F89939" d="m684.873024,1114.291071c1.62293,1.4624 3.23901,2.9353 4.862,4.40844c4.5188,4.11243 9.60754,6.68726 15.80225,6.68726c5.89801,0 11.62292,-2.4303 15.79559,-6.68726c4.17572,-4.26049 6.5484,-10.11022 6.5484,-16.12933c0,-6.32587 -2.51733,-11.5216 -6.5484,-16.13635c-1.43909,-1.65753 -2.88202,-3.30756 -4.31781,-4.96484c-8.24213,-9.45258 -23.76874,-8.54993 -32.14203,0c-8.37299,8.55017 -9.25354,24.40509 0,32.82208l0,0z" id="svg_137"/>
    <path fill="#F89939" d="m774.404704,1428.270801c20.56183,0 20.56183,-32.56152 0,-32.56152c-20.56879,0.00354 -20.56549,32.56152 0,32.56152l0,0z" id="svg_138"/>
    <path fill="#F89939" d="m894.695844,1325.845021c-1.59852,-4.42321 -3.98884,-10.41711 -8.58185,-12.5188c-4.26471,-1.94934 -7.51746,-2.56701 -12.04377,-1.53064c-3.33789,0.75464 -6.29064,3.2461 -8.69152,5.56055c-5.4029,5.19226 -5.64661,15.3346 0,20.48718c5.80603,5.30054 11.88092,7.02259 19.52221,5.65052c3.41944,-0.61316 7.26673,-3.23499 9.72065,-5.65052c-3.3487,1.41553 -6.69001,2.83448 -10.0387,4.24659c1.53455,0 3.06549,0 4.5932,0c6.31183,0 12.00818,-4.42725 13.68073,-10.64124c1.96618,-7.29004 -2.34766,-16.14343 -9.90772,-17.81909c3.06574,0.68262 2.00495,1.0509 0.73529,0.48743c-1.48852,-0.66431 -3.07629,-1.42994 -4.67102,-1.94226c3.64954,3.72607 7.29108,7.44506 10.9408,11.1715c-1.49964,-5.55676 -4.52619,-8.55761 -8.89307,-11.90112c1.24432,0.97852 2.47498,1.95337 3.70898,2.92859c-0.21588,-0.18787 -0.43121,-0.37219 -0.66119,-0.56348c-2.49268,-2.5238 -5.42804,-4.2749 -8.81549,-5.2395c-5.67126,-1.59949 -10.20837,-0.20581 -15.39191,2.0509c-1.97308,0.86329 -3.71295,2.80957 -5.41711,4.29346c-3.37695,2.96448 -4.9754,7.06616 -6.41809,11.20044c-2.66968,7.64404 0.43506,17.06812 5.84497,22.58923c7.49622,7.66162 18.40167,8.4596 27.54889,3.62488c0.39288,-0.19153 0.78186,-0.41174 1.1463,-0.66077c-3.90381,1.07581 -7.80078,2.16297 -11.71149,3.23536c10.88379,0.36108 19.98529,-7.18543 24.46204,-16.84021c-4.99634,3.92407 -9.98218,7.84216 -14.9751,11.76318c7.05786,-2.49841 13.00543,-6.2428 16.85266,-12.93372c1.5733,-2.75109 2.19568,-5.16674 3.13635,-7.87817c-0.89447,2.18091 -1.80334,4.36548 -2.69781,6.54627c0.0105,-0.02906 0.01782,-0.05787 0.03534,-0.0868c-3.2074,3.27845 -6.41797,6.54969 -9.63208,9.8357c0.0105,0 0.0105,-0.00367 0.02112,-0.00696c-13.46137,-7.89685 -26.93036,-15.77551 -40.39197,-23.6687c0.0285,0.41174 -0.07428,0.85937 -0.12341,1.27111c-0.79944,6.82776 3.36236,14.84363 7.90985,19.48694c5.04235,5.15271 11.95507,8.07019 19.08014,8.07019s14.05596,-2.92077 19.0877,-8.07019c4.5365,-4.63623 8.70911,-12.67029 7.89942,-19.48694c-0.33246,-2.84912 -0.29022,-5.84228 -1.13184,-8.56152c-2.83233,-9.21069 -9.47278,-16.53357 -18.7478,-19.14026c-4.75574,-1.30371 -9.51172,-1.30371 -14.2641,0c-4.54382,1.29981 -8.50067,3.65393 -11.84595,7.05176c-5.84826,4.74463 -7.36505,12.82153 -7.93091,19.85925c-0.66467,8.32618 3.19288,15.19764 8.34839,21.13733c-2.1427,-8.30847 -4.29614,-16.60986 -6.44622,-24.9071c-0.19074,1.29272 -0.44886,2.55639 -0.81324,3.81299c-1.47094,4.97192 -1.9837,10.33386 -0.20837,15.34924c0,-4.1958 0,-8.39478 0,-12.60169c-0.07428,0.21314 -0.14514,0.41175 -0.2193,0.6211c0.77441,-1.86658 1.54529,-3.73328 2.32312,-5.60388c-0.09875,0.21692 -0.18744,0.42627 -0.27582,0.64245c13.85395,1.85279 27.69751,3.69422 41.55152,5.54639c-1.34369,-3.8562 -2.98792,-8.18567 -6.17047,-10.9657c-1.76441,-1.54907 -3.69507,-3.66528 -5.67157,-4.52807c3.06573,7.67639 6.1206,15.35314 9.18304,23.0332c0.0777,-0.36121 0.15204,-0.72217 0.22961,-1.07959c-2.80731,3.7229 -5.61163,7.44885 -8.41906,11.17871c4.35644,-3.34363 7.39007,-6.34729 8.8861,-11.89746c-3.64563,3.71899 -7.29126,7.44556 -10.94085,11.16431c1.60186,-0.51246 3.18255,-1.2782 4.6748,-1.94593c1.26941,-0.54907 2.33393,-0.18432 -0.73157,0.49829c6.11365,-1.35766 10.41327,-7.79541 10.41327,-13.96667c0,-7.90015 -6.44952,-14.48975 -14.18646,-14.48975c-2.74744,0 -5.69665,-0.23095 -8.35907,0.52027c-2.50012,0.69677 -4.44842,1.94604 -6.30115,3.76562c-1.46398,1.43701 3.41571,-2.48022 1.54883,-1.26367c-1.91992,1.24927 3.68451,-1.27466 1.27985,-0.57739c2.84662,-0.81263 5.88421,-0.20984 8.09064,1.79797c0,6.8313 0,13.65918 0,20.48047c0.24035,-0.22754 0.48437,-0.45923 0.72473,-0.68994c-2.01575,2.01123 -4.51892,3.01831 -7.52484,3.02954c-2.39386,-0.66089 -4.78028,-1.3147 -7.16736,-1.97888c-1.42823,-1.48401 -2.87128,-2.97168 -4.31043,-4.45947c-0.64355,-2.43714 -1.29052,-4.87061 -1.93414,-7.30823c0.1239,1.4049 0.27582,0.578 0.4632,-2.45142c-0.0777,0.63159 -0.27576,1.25671 -0.44556,1.86682c-2.6839,9.77429 4.83014,19.73242 14.72418,19.73242c9.30335,0 18.242,-10.08117 14.74146,-19.73242l0,0z" id="svg_139"/>
    <path fill="#F89939" d="m492.889474,1391.008231c-5.67175,2.65027 -10.71066,9.67676 -11.96939,15.75745c-1.26959,6.14551 -0.69672,9.96191 0.33233,16.17224c1.09641,3.99719 3.07636,7.46716 5.94068,10.41382c4.31036,4.40124 10.24032,6.9071 16.33636,6.9071c4.16877,-0.01453 8.05832,-1.08704 11.6651,-3.21729c4.73468,-2.84155 9.64969,-8.35498 10.61151,-14.10363c0.17695,-1.02906 0.31104,-2.06531 0.66117,-3.05494c-0.79206,1.91736 -1.58405,3.84205 -2.37964,5.76648c0.06341,-0.17309 0.14856,-0.32458 0.24038,-0.47998c-1.23391,1.63208 -2.47494,3.2605 -3.70901,4.90332c0.08456,-0.13025 0.19073,-0.23449 0.31473,-0.32519c-1.60919,1.2716 -3.20709,2.53149 -4.8198,3.80237c0.07071,-0.03614 0.12735,-0.07227 0.19074,-0.11206c-1.89874,0.81994 -3.79758,1.64331 -5.68936,2.45544c0.14492,-0.07239 0.29736,-0.11194 0.45626,-0.13355c-2.12503,0.29248 -4.23974,0.58155 -6.35418,0.88086c0.08838,-0.01037 0.18039,-0.02173 0.26541,-0.02868c6.57348,-0.63587 12.13559,-2.25672 16.9479,-7.17078c6.03952,-6.17078 8.42991,-15.38208 6.15958,-23.80933c-1.64758,-6.11315 -5.65753,-11.41772 -11.01459,-14.62023c-3.73382,-2.21692 -7.76864,-3.32911 -12.09289,-3.34375c-4.32459,0.01098 -8.36304,1.13024 -12.09329,3.34033l0,0z" id="svg_140"/>
    <path fill="#F89939" d="m985.596044,795.584101c3.0763,0 3.0763,-4.87073 0,-4.87073s-3.07647,4.87073 0,4.87073l0,0z" id="svg_141"/>
    <path fill="#F89939" d="m976.416784,832.868711c20.55817,0 20.55817,-32.56171 0,-32.56171c-20.56903,0 -20.56903,32.56171 0,32.56171l0,0z" id="svg_142"/>
   </g>
  </g>
 </g>
</svg>